<svg xmlns="http://www.w3.org/2000/svg" viewBox="0 0 1024 1024" width="1024" height="1024"><g stroke-width="2" fill="none" stroke-linecap="butt"/><path d="M 0 515.27L 0 508.86Q 1.65 499.65 8.84 490.59Q 262.92 170.31 324.27 93.02Q 331.92 83.38 345.26 83.23Q 420.85 82.34 522.04 82.83C 547.45 82.95 567.33 83.07 578.44 82.95Q 589.27 82.84 593.92 84.36C 610.84 89.91 619.81 109.14 610.65 125.16Q 608.18 129.48 604.55 134.06Q 586.75 156.47 411.25 377.75Q 406.73 383.45 401.44 388.69C 392.92 397.16 380.33 397.57 369.83 392.67Q 365.33 390.56 362.17 387.09C 353.57 377.62 351.28 364.52 357.84 353.35C 361.06 347.86 364.79 343.38 368.67 338.5Q 447.1 239.84 525.23 141.18A 0.42 0.42 -70.98 0 0 524.9 140.5L 361.19 140.5A 2.05 2.03 18.79 0 0 359.58 141.28L 65.94 511.4A 0.96 0.96 90 0 0 65.94 512.6L 359.78 882.98A 1.24 1.23 -19.04 0 0 360.75 883.45L 524.92 883.45A 0.4 0.39 70.94 0 0 525.23 882.81Q 367.6 684 249.72 535.56C 246.6 531.63 242.18 525.87 240.62 521.22C 236.63 509.36 240.2 497.02 250.25 489.39C 260.09 481.91 273.78 481.45 284.03 488.11Q 287.73 490.51 295.11 499.83Q 421.9 659.76 602.13 886.87Q 603.58 888.69 608.5 895.49Q 617.75 908.25 611.96 922.99C 608.42 932.02 600.35 939.18 590.43 940.36Q 585.34 940.97 581.51 940.99C 577.68 941.02 574.49 941.23 572.13 941.24Q 544.08 941.39 418.27 941.05C 383.81 940.95 360.61 941.01 349.95 941.01Q 341.32 941 338.14 940.03C 330.78 937.76 325.45 932.44 320.63 926.37Q 297.09 896.74 5.96 529.78Q 1.84 524.59 0 515.27Z" fill="#ffffff"/><path d="M 1024 109.44L 1024 115.99Q 1022.02 124.45 1017.57 130.07Q 973.06 186.16 714.79 511.64A 0.51 0.5 45.57 0 0 714.79 512.27Q 803.4 623.98 1017.04 893.23C 1020.87 898.05 1022.08 902.34 1024 907.91L 1024 914.46C 1021.75 926.61 1016.34 935.98 1003.88 939.33Q 997.89 940.94 988.24 941.13Q 977.42 941.33 945.51 941.2Q 854.97 940.82 756.76 941.14Q 742.22 941.19 732.86 929.39Q 530.64 674.6 419.32 534.15C 415.88 529.81 411.45 523.17 410.42 517.46C 408.12 504.64 414.2 496.25 421.74 486.74Q 695.71 141.36 729.41 98.93C 734.87 92.06 738.98 87.07 747.54 84.17Q 751.84 82.71 766.04 82.79C 836.95 83.2 914.47 82.83 988.03 82.74Q 990.47 82.74 997.5 83.39Q 1017.18 85.22 1022.56 104.06Q 1023.32 106.73 1024 109.44Z" fill="#ffffff"/></svg>
